<?xml version="1.0" standalone="no"?><!DOCTYPE svg PUBLIC "-//W3C//DTD SVG 1.1//EN" "http://www.w3.org/Graphics/SVG/1.1/DTD/svg11.dtd"><svg t="1773312647546" class="icon" viewBox="0 0 1024 1024" version="1.1" xmlns="http://www.w3.org/2000/svg" p-id="14659" xmlns:xlink="http://www.w3.org/1999/xlink" width="200" height="200"><path d="M512.909516 512.464298m-508.819876 0a508.819876 508.819876 0 1 0 1017.639751 0 508.819876 508.819876 0 1 0-1017.639751 0Z" fill="#F8E71C" p-id="14660"></path><path d="M512.909516 512.464298m-355.442485 0a355.442484 355.442484 0 1 0 710.884969 0 355.442484 355.442484 0 1 0-710.884969 0Z" fill="#FE3D50" p-id="14661"></path><path d="M874.038062 765.087006H151.780969c-24.277068 0-42.728149-21.822012-38.683031-45.761987l71.756323-425.017243a39.230012 39.230012 0 0 1 38.683031-32.698037h578.744447a39.230012 39.230012 0 0 1 38.683031 32.698037l71.756323 425.017243c4.045118 23.939975-14.405963 45.761988-38.683031 45.761987z" fill="#FFFFFF" p-id="14662"></path><path d="M290.82236 708.035578h92.223603v56.752497h-92.223603z" fill="#51E4C2" p-id="14663"></path><path d="M911.461764 711.851727l-70.496994-417.543951a39.230012 39.230012 0 0 0-38.683031-32.698037H223.537292a39.230012 39.230012 0 0 0-38.683031 32.698037L114.357267 711.851727c-0.031801 21.135106 17.064547 39.051925 39.007404 39.051925h719.089689c21.942857 0 39.039205-17.91682 39.007404-39.051925z" fill="#FE3D50" p-id="14664"></path><path d="M905.279602 675.242137l-64.314832-380.934361a39.230012 39.230012 0 0 0-38.683031-32.698037H223.537292a39.230012 39.230012 0 0 0-38.683031 32.698037l-64.314832 380.934361c2.722186 18.253913 18.42564 32.793441 38.047006 32.793441h708.639801c19.621366 0 35.33118-14.545888 38.053366-32.793441z" fill="#FFFFFF" p-id="14665"></path><path d="M333.754037 261.609739l-42.931677 446.425839h92.223603l25.440994-446.425839z" fill="#51E4C2" p-id="14666"></path><path d="M150.426236 498.210981h724.966559l12.529689 74.24318H137.292323z" fill="#51E4C2" p-id="14667"></path><path d="M774.671901 217.501416c0 71.381068-106.979379 188.962981-143.84974 230.221913a16.492124 16.492124 0 0 1-24.633242 0c-36.87036-41.258932-143.843379-158.840845-143.843379-230.221913 0-86.244969 69.918211-156.16318 156.16318-156.16318s156.16318 69.918211 156.163181 156.16318z" fill="#2283F6" p-id="14668"></path><path d="M618.50872 232.549764m-75.324422 0a75.324422 75.324422 0 1 0 150.648845 0 75.324422 75.324422 0 1 0-150.648845 0Z" fill="#252528" p-id="14669"></path><path d="M618.50872 219.829267m-75.324422 0a75.324422 75.324422 0 1 0 150.648845 0 75.324422 75.324422 0 1 0-150.648845 0Z" fill="#51E4C2" p-id="14670"></path><path d="M543.184298 453.244025a75.324422 23.437516 0 1 0 150.648845 0 75.324422 23.437516 0 1 0-150.648845 0Z" fill="#2283F6" p-id="14671"></path><path d="M618.50872 232.549764m-57.61749 0a57.617491 57.617491 0 1 0 115.234981 0 57.617491 57.617491 0 1 0-115.234981 0Z" fill="#FFFFFF" p-id="14672"></path><path d="M618.50872 219.829267m-57.61749 0a57.617491 57.617491 0 1 0 115.234981 0 57.617491 57.617491 0 1 0-115.234981 0Z" fill="#FFFFFF" p-id="14673"></path></svg>